inDegrees=no
num_controls=7
num_derivatives=13
num_iterations=140
num_multipliers=7
num_parameters=0
num_slacks=7
num_states=26
objective=0.424787
objective_accelerations=0.058210
objective_balance=0.007171
objective_effort=0.035031
objective_height=0.323368
objective_ligament=0.001007
solver_duration=1751.866137
status=Solve_Succeeded
success=true
DataType=double
version=3
OpenSimVersion=4.5
endheader
time	/jointset/ground_pelvis/pelvis_tilt/value	/jointset/ground_pelvis/pelvis_tx/value	/jointset/ground_pelvis/pelvis_ty/value	/jointset/hip_l/hip_flexion_l/value	/jointset/hip_l/hip_adduction_l/value	/jointset/hip_l/hip_rotation_l/value	/jointset/back/lumbar_extension/value	/jointset/patellofemoral_l/patellar_flexion_l/value	/jointset/knee_l/knee_flexion_l/value	/jointset/knee_l/knee_adduction_l/value	/jointset/knee_l/knee_rotation_l/value	/jointset/ankle_l/ankle_angle_l/value	/jointset/subtalar_l/subtalar_angle_l/value	/jointset/ground_pelvis/pelvis_tilt/speed	/jointset/ground_pelvis/pelvis_tx/speed	/jointset/ground_pelvis/pelvis_ty/speed	/jointset/hip_l/hip_flexion_l/speed	/jointset/hip_l/hip_adduction_l/speed	/jointset/hip_l/hip_rotation_l/speed	/jointset/back/lumbar_extension/speed	/jointset/patellofemoral_l/patellar_flexion_l/speed	/jointset/knee_l/knee_flexion_l/speed	/jointset/knee_l/knee_adduction_l/speed	/jointset/knee_l/knee_rotation_l/speed	/jointset/ankle_l/ankle_angle_l/speed	/jointset/subtalar_l/subtalar_angle_l/speed	/forceset/tau_hip_flexion_l	/forceset/tau_hip_adduction_l	/forceset/tau_hip_rotation_l	/forceset/tau_knee_flexion_l	/forceset/tau_ankle_angle_l	/forceset/tau_subtalar_angle_l	/forceset/tau_lumbar_extension	lambda_cid13_p0	lambda_cid13_p1	lambda_cid13_p2	lambda_cid13_p3	lambda_cid13_p4	lambda_cid13_p5	lambda_cid14_p0	/jointset/ground_pelvis/pelvis_tilt/accel	/jointset/ground_pelvis/pelvis_tx/accel	/jointset/ground_pelvis/pelvis_ty/accel	/jointset/hip_l/hip_flexion_l/accel	/jointset/hip_l/hip_adduction_l/accel	/jointset/hip_l/hip_rotation_l/accel	/jointset/back/lumbar_extension/accel	/jointset/patellofemoral_l/patellar_flexion_l/accel	/jointset/knee_l/knee_flexion_l/accel	/jointset/knee_l/knee_adduction_l/accel	/jointset/knee_l/knee_rotation_l/accel	/jointset/ankle_l/ankle_angle_l/accel	/jointset/subtalar_l/subtalar_angle_l/accel	gamma_cid13_p0	gamma_cid13_p1	gamma_cid13_p2	gamma_cid13_p3	gamma_cid13_p4	gamma_cid13_p5	gamma_cid14_p0
0	-0.1549464189314913	0.05662885592188922	0.8978264022314607	0.3774924667018715	-0.2615712187578451	-0.2306439613470174	-0.01265067647494873	0.03223648243721472	0.03223648243721463	-0.1745326187966049	0.1341437553930523	-0.04231377076293093	-0.01219127226746381	0	0	0	0	0	0	0	0	0	0	0	0	0	0.1437413717454666	-0.07846677781158908	-0.04385893970632572	-0.3052084920944519	0.3189640984715608	-0.03457829909628309	-0.08791364735318943	61.62550276281127	0.5425735753170943	3.719782392366566	-15.1641475676481	-583.4047700164226	-73.42945583695263	-37.87517405268883	-3.179334615672509	-1.821006812401715	-1.126794668023899	12.79877863656744	-1.413479580957369	3.821418394240079	-5.94177611595536	12.39146898022443	12.39146898023084	0.1300057861364422	0.4750882026654574	3.071249878069691	-0.7346751031044395	-2.78616634699289e-08	1.205760448920899e-07	7.509519702843251e-08	1.536245841384571e-09	7.54706346558002e-08	-5.69542590167752e-09	-9.651694125107795e-09
0.01	-0.1550981841087309	0.05653947601857084	0.8977714315052948	0.3781151931987663	-0.2616419330873989	-0.2304530131950196	-0.01294899324360006	0.03284313524613028	0.03284313524613042	-0.1745288069101029	0.1341634728312896	-0.04216351024913661	-0.0122287951446293	-0.03014781675166815	-0.01774508090366518	-0.01095431814271636	0.1238961698676087	-0.01409872237244135	0.03807397989422778	-0.05926029600093562	0.1208611927742078	0.1208611927742245	0.0007139999632598854	0.003903563787067972	0.03001954915045784	-0.007470207814313371	0.1387903524492344	-0.08760088818765013	-0.043001760420255	-0.3007136927826737	0.3118481997050537	-0.02266137156031129	-0.08361790324884673	59.76483155587508	-4.069235089838252	4.183262441679806	-15.06161904947081	-584.6645714113441	-82.46971437533469	-37.89319979543848	-2.901730630949734	-1.731623458099224	-1.073761229699678	12.08765980825963	-1.401475644439883	3.783033388186038	-5.857697682765863	11.86304100501658	11.86304100501503	0.03486951201831139	0.3419971842461182	2.962423183062953	-0.7480658695428464	-8.511853722383221e-08	1.30360387017788e-07	2.085818063069755e-07	3.831506197989542e-08	-1.064127271324808e-07	-7.029504819756972e-08	-3.319601417945669e-08
0.02	-0.1555452725386941	0.05627657236046574	0.8976081154292408	0.379957406123618	-0.2618523160564877	-0.2298847961238453	-0.01382782124038125	0.03464431929858793	0.03464431929858794	-0.1745193005418491	0.1342210272509008	-0.04171403109393189	-0.01233999454972753	-0.05906465054476985	-0.03470475095734375	-0.02166906997759532	0.2438972855912991	-0.02793372790697438	0.07545378383533206	-0.1161022456259984	0.2389062487083205	0.2389062487083204	0.001138896350318555	0.007567396274882051	0.05984372828208067	-0.01473530558654913	0.1338393331530054	-0.09673499856371129	-0.0421445811341862	-0.296218893470893	0.3047323009385459	-0.01074444402433936	-0.07932215914450204	58.00528598047066	-8.702235399330208	4.65410846696567	-15.20500595919489	-584.429334220103	-91.38499612475285	-37.94643338436809	-2.933138023959437	-1.663924642404392	-1.07888140645642	12.01976780778378	-1.360736213375408	3.682583203615382	-5.458106840780702	11.8282416122054	11.82824161220512	0.07218507088588454	0.4271419428146787	3.032175874302689	-0.6936530946889169	-1.423754109777355e-07	1.401447291434862e-07	3.420684155855185e-07	7.509387811840626e-08	-2.882960889207618e-07	-1.348946704934619e-07	-5.67403342338056e-08
0.03	-0.1562764631321314	0.05584755533750389	0.8973385203332135	0.3829815717271521	-0.262198401614098	-0.2289473239799988	-0.01526258916924653	0.03761083404792308	0.03761083404792304	-0.1745052172827776	0.1343145684664573	-0.0409683092028186	-0.01252180759727745	-0.08704032700887063	-0.05100998751141987	-0.03223584579046649	0.3603638820531246	-0.04111940298369173	0.1118166255867765	-0.1704470394418162	0.3537908174638616	0.3537908174638626	0.001780086572410541	0.01114629038081848	0.08915390474600049	-0.02150646036013477	0.1280138399342622	-0.09051498768222965	-0.04126128330833519	-0.2906265157207153	0.2981438014298751	-0.01329022801316449	-0.07457121362829075	55.78698214490144	-7.375384846415147	4.633543691720784	-14.1170290766904	-584.5999786775553	-87.88167309576839	-38.03291176355869	-2.709825459640033	-1.600508075993595	-1.043518547188004	11.37429231509349	-1.272942876206691	3.579481906250417	-5.362020546196153	11.22769339620051	11.22769339620086	0.07549935978641067	0.3240323515372724	2.858418089820509	-0.6507804562962984	-1.596996436497006e-07	1.897664016167072e-07	3.084736275812118e-07	1.076529834962405e-07	-4.394656530692276e-07	-7.151439874850902e-08	-5.018892243897309e-08
0.04	-0.1572834190906104	0.05525814896618442	0.8969636689033602	0.3871532406452469	-0.2626714358667527	-0.2276529539695695	-0.01722867601511273	0.04170802026260791	0.04170802026260802	-0.1744816394491023	0.1344440524644844	-0.03993388963558932	-0.01276771895008381	-0.1142177235531556	-0.06678262062887134	-0.04272033674275656	0.4733979485034097	-0.05332346691588105	0.1468333571518786	-0.2223660290261895	0.4650405417782849	0.4650405417782878	0.003037811271124752	0.01475595276891971	0.1175832635052756	-0.02755496663783687	0.1221883467155182	-0.08429497680074828	-0.040377985482483	-0.285034137970538	0.2915553019212043	-0.01583601200198993	-0.06982026811207989	53.66220483333378	-6.063625836827015	4.613922768973889	-13.2641068413731	-583.4094726960083	-84.25360608875985	-38.15023528574451	-2.773482039996109	-1.557403955079434	-1.062424434340203	11.33326180547544	-1.164413984469803	3.413361166346907	-4.97294599449179	11.10127272398186	11.10127272398167	0.1954919662103307	0.4332955992475306	2.856012333373752	-0.5491233955122099	-1.762005228972958e-07	2.402094623445163e-07	2.714338623133412e-07	1.401250845284938e-07	-5.900019430395529e-07	-5.495366301682975e-09	-4.301698009054921e-08
0.05	-0.158558284976132	0.05451369020156115	0.8964839837461425	0.3924389190540419	-0.2632625697150323	-0.2260145853416408	-0.01970125056502598	0.04690087464200229	0.04690087464200236	-0.1744443764389145	0.1346098018915738	-0.03861924314160058	-0.01307142619995518	-0.1405818657423185	-0.08201579329083429	-0.05323247353395726	0.583143100160417	-0.06484058030787733	0.180686281757232	-0.2717411753523281	0.5729811399516936	0.5729811399517036	0.00430107347914626	0.01836412990303714	0.1452054155091098	-0.03316858356229655	0.1151538863381554	-0.08195867371932224	-0.03921594789911264	-0.2784953552788789	0.2823382523148814	-0.01381425321471957	-0.06422523571948259	50.87497934082398	-6.523377057622988	4.766860009142983	-12.01049571230521	-582.1067270678723	-84.08343163712722	-38.29529012489649	-2.54184974038022	-1.492244783596329	-1.048094343328821	10.70592694928386	-1.135996863232377	3.348109772495277	-4.85864311105443	10.55808278712702	10.55808278712821	0.0747503193179055	0.3200759186158212	2.694211960390272	-0.5648623836874848	-2.010430377653783e-07	2.002030185080595e-07	3.51157550646155e-07	1.563576802890523e-07	-6.876548131479705e-07	-5.117511359336489e-08	-5.809589535584369e-08
0.06	-0.1600915861699459	0.05361970553794992	0.8958986800126489	0.3988042060001012	-0.2639670020665653	-0.2240423171346854	-0.02265534541007652	0.05315666088775213	0.05315666088775213	-0.1743978794124025	0.1348107325196287	-0.03703259606227309	-0.01343074592762608	-0.1659047852116345	-0.0966878004264615	-0.06384405199791109	0.6893196559562429	-0.07598316756658699	0.2136132729572157	-0.3186700880536483	0.6776269150493678	0.6776269150493864	0.004884614535961586	0.0217921929620102	0.1719833805730246	-0.03867746219774162	0.1081194259607933	-0.07962237063789612	-0.0380539103157425	-0.2719565725872197	0.2731212027085586	-0.01179249442744914	-0.0586302033268848	48.16896805938958	-6.99686761394606	4.921441972003759	-10.96662023051679	-579.6152535390252	-83.80473945887393	-38.46479534111883	-2.565237496026702	-1.445170849812284	-1.082312768890824	10.61954263323911	-1.089508757812478	3.228174485273129	-4.483699269528155	10.44230810883495	10.4423081088351	0.05954773596909013	0.3972727842163302	2.687174945389856	-0.5281757377092851	-2.262367793964287e-07	1.563881744794231e-07	4.357975949200503e-07	1.71906507406592e-07	-7.83081012946413e-07	-1.015579674003524e-07	-7.411168883645261e-08
